<?xml version="1.0" encoding="utf-8"?>
<!-- Generator: Adobe Illustrator 16.0.0, SVG Export Plug-In . SVG Version: 6.00 Build 0)  -->
<!DOCTYPE svg PUBLIC "-//W3C//DTD SVG 1.1//EN" "http://www.w3.org/Graphics/SVG/1.1/DTD/svg11.dtd">
<svg version="1.1" id="Layer_1" xmlns="http://www.w3.org/2000/svg" xmlns:xlink="http://www.w3.org/1999/xlink" x="0px" y="0px"
	 width="90px" height="28px" viewBox="0.468 0.771 90 28" enable-background="new 0.468 0.771 90 28" xml:space="preserve">
<g id="Layer_3">
	<g>
		<path fill="#FF8E00" d="M47.706,13.675c1.019,0,2.435-0.111,2.96-0.333c0.143-0.064,0.158-0.128,0.158-0.208V1.979
			c0-0.095-0.062-0.159-0.158-0.159H48.9c-0.096,0-0.16,0.063-0.16,0.159v2.832c0,0.08-0.016,0.144-0.111,0.144
			c-0.207,0-0.812-0.096-1.354-0.096c-2.593,0-3.675,1.433-3.675,4.345C43.601,12.466,44.396,13.675,47.706,13.675z M47.689,6.388
			c0.35,0,0.699,0.032,0.922,0.079c0.097,0.017,0.127,0.127,0.127,0.208v5.251c0,0.079-0.031,0.126-0.141,0.159
			c-0.225,0.063-0.623,0.079-0.875,0.079c-1.688,0-1.958-0.589-1.958-2.928C45.764,6.865,46.242,6.388,47.689,6.388z"/>
		<path fill="#FF8E00" d="M56.855,4.844c-2.594,0-3.804,1.591-3.804,4.439c0,2.689,0.987,4.392,4.091,4.392
			c1.112,0,2.1-0.175,2.721-0.461c0.078-0.032,0.111-0.08,0.111-0.144l-0.111-1.241c-0.032-0.063-0.096-0.079-0.176-0.079
			c-0.492,0.159-1.433,0.366-2.244,0.366c-1.479,0-2.291-0.43-2.291-2.132c0-0.065,0.017-0.096,0.096-0.096h4.486
			c0.383,0,0.43-0.271,0.43-1.353C60.165,6.228,59.402,4.844,56.855,4.844z M58.161,8.6h-2.943c-0.063,0-0.097-0.047-0.097-0.111
			c0-1.241,0.287-2.196,1.704-2.196c1.208,0,1.511,0.637,1.511,1.846C58.335,8.568,58.288,8.6,58.161,8.6z"/>
		<path fill="#FF8E00" d="M67.311,11.177c0-0.986-0.381-1.576-1.781-2.466c-1.256-0.78-1.528-0.954-1.528-1.511
			c0-0.685,0.335-0.749,1.337-0.749c0.461,0,1.146,0.08,1.624,0.159c0.062,0.017,0.11-0.031,0.11-0.063l0.096-1.417
			c0-0.079-0.031-0.095-0.079-0.11c-0.493-0.097-1.368-0.176-2.133-0.176c-2.069,0-3.022,0.605-3.022,2.403
			c0,1.066,0.445,1.512,1.733,2.371c1.257,0.859,1.528,1.099,1.528,1.576c0,0.795-0.176,0.907-1.305,0.907
			c-0.524,0-1.289-0.063-1.813-0.174c-0.063-0.017-0.128,0.015-0.128,0.063l-0.079,1.385c0,0.079,0.048,0.111,0.095,0.127
			c0.51,0.096,1.385,0.175,2.26,0.175C66.198,13.675,67.311,13.214,67.311,11.177z"/>
		<path fill="#FF8E00" d="M69.507,5.004c-0.095,0-0.157,0.063-0.157,0.158v8.195c0,0.096,0.062,0.16,0.157,0.16h1.767
			c0.096,0,0.16-0.064,0.16-0.16V5.162c0-0.095-0.064-0.158-0.16-0.158H69.507L69.507,5.004z"/>
		<path fill="#FF8E00" d="M69.459,3.587h1.863c0.095,0,0.158-0.064,0.158-0.159V1.853c0-0.096-0.063-0.16-0.158-0.16h-1.863
			c-0.096,0-0.159,0.063-0.159,0.16v1.575C69.301,3.523,69.365,3.587,69.459,3.587z"/>
		<path fill="#FF8E00" d="M77.4,12.992c0.51,0,0.955-0.016,1.369-0.063c0.08,0,0.097,0.032,0.097,0.111
			c0,1.273-0.113,1.782-2.005,1.782c-0.764,0-1.862-0.175-2.467-0.318c-0.097-0.016-0.127,0.032-0.144,0.096l-0.19,1.241
			c0,0.048,0.031,0.095,0.111,0.127c0.59,0.239,2.229,0.415,2.928,0.415c2.323,0,3.836-0.542,3.836-3.055v-7.99
			c0-0.062-0.017-0.11-0.129-0.158c-0.637-0.24-2.068-0.336-2.977-0.336c-3.008,0-4.105,1.241-4.105,4.265
			C73.725,12.148,74.711,12.992,77.4,12.992z M77.75,6.388c0.445,0,0.796,0.032,1.02,0.127c0.064,0.032,0.097,0.08,0.097,0.143
			v4.695c0,0.08-0.017,0.111-0.112,0.143c-0.158,0.048-0.479,0.095-0.923,0.095c-1.687,0-1.957-0.429-1.957-2.577
			C75.874,6.817,76.287,6.388,77.75,6.388z"/>
		<path fill="#FF8E00" d="M85.534,13.357v-6.65c0-0.097,0.047-0.127,0.157-0.16c0.271-0.063,0.652-0.095,1.129-0.095
			c1.275,0,1.545,0.318,1.545,1.527v5.378c0,0.096,0.062,0.16,0.16,0.16h1.766c0.095,0,0.159-0.064,0.159-0.16V7.884
			c0-2.324-0.749-3.04-3.548-3.04c-1.002,0-2.436,0.191-3.295,0.334c-0.096,0.017-0.158,0.063-0.158,0.158v8.021
			c0,0.096,0.062,0.16,0.158,0.16h1.767C85.469,13.517,85.534,13.453,85.534,13.357z"/>
		<path fill="#FF8E00" d="M47.331,19.939c-2.594,0-3.804,1.59-3.804,4.438c0,2.688,0.986,4.394,4.089,4.394
			c1.114,0,2.101-0.176,2.722-0.463c0.079-0.031,0.11-0.08,0.11-0.143l-0.11-1.242c-0.033-0.062-0.095-0.078-0.176-0.078
			c-0.493,0.158-1.432,0.365-2.244,0.365c-1.48,0-2.292-0.43-2.292-2.132c0-0.063,0.016-0.097,0.095-0.097h4.488
			c0.382,0,0.43-0.271,0.43-1.354C50.641,21.323,49.876,19.939,47.331,19.939z M48.635,23.693h-2.943
			c-0.064,0-0.096-0.047-0.096-0.11c0-1.242,0.287-2.196,1.703-2.196c1.21,0,1.512,0.637,1.512,1.848
			C48.811,23.663,48.764,23.693,48.635,23.693z"/>
		<path fill="#FF8E00" d="M59.329,16.916h-1.767c-0.096,0-0.158,0.062-0.158,0.159v2.832c0,0.081-0.018,0.145-0.111,0.145
			c-0.207,0-0.811-0.096-1.354-0.096c-2.594,0-3.676,1.433-3.676,4.344c0,3.263,0.795,4.472,4.105,4.472
			c1.018,0,2.434-0.111,2.959-0.334c0.143-0.062,0.16-0.127,0.16-0.207V17.074C59.488,16.979,59.424,16.916,59.329,16.916z
			 M57.404,27.02c0,0.08-0.032,0.127-0.143,0.16c-0.225,0.062-0.623,0.079-0.877,0.079c-1.686,0-1.957-0.589-1.957-2.928
			c0-2.371,0.477-2.849,1.926-2.849c0.35,0,0.699,0.033,0.922,0.08c0.096,0.017,0.127,0.127,0.127,0.207L57.404,27.02L57.404,27.02z
			"/>
		<path fill="#FF8E00" d="M63.438,20.098h-1.767c-0.095,0-0.159,0.062-0.159,0.159v8.195c0,0.095,0.063,0.159,0.159,0.159h1.767
			c0.096,0,0.16-0.063,0.16-0.159v-8.195C63.598,20.161,63.533,20.098,63.438,20.098z"/>
		<path fill="#FF8E00" d="M63.486,16.788h-1.862c-0.095,0-0.159,0.063-0.159,0.159v1.574c0,0.097,0.064,0.16,0.159,0.16h1.862
			c0.095,0,0.158-0.062,0.158-0.16v-1.574C63.645,16.852,63.581,16.788,63.486,16.788z"/>
		<path fill="#FF8E00" d="M69.32,20.098h-1.512c-0.062,0-0.095-0.031-0.095-0.096v-1.988c0-0.096-0.067-0.168-0.17-0.156
			c-0.103,0.01-1.676,0.422-1.758,0.447c-0.082,0.023-0.156,0.069-0.156,0.219v8.496c0,1.162,0.652,1.752,1.927,1.752
			c0.444,0,0.938-0.064,1.287-0.145c0.081-0.016,0.16-0.111,0.16-0.206l0.048-1.067c0-0.127-0.081-0.158-0.159-0.158h-0.494
			c-0.51,0-0.684-0.144-0.684-0.668v-4.727c0-0.064,0.032-0.096,0.096-0.096h1.512c0.096,0,0.16-0.062,0.16-0.159v-1.289
			C69.48,20.161,69.417,20.098,69.32,20.098z"/>
		<path fill="#FF8E00" d="M74.062,19.939c-1.305,0-2.164,0.205-2.737,0.826c-0.636,0.653-1.065,1.91-1.065,3.518
			c0,1.591,0.445,2.959,1.065,3.628c0.573,0.604,1.368,0.86,2.706,0.86c1.337,0,2.18-0.256,2.769-0.86
			c0.606-0.668,1.019-2.037,1.019-3.628c0-1.607-0.414-2.85-1.019-3.518C76.211,20.161,75.416,19.939,74.062,19.939z M75.225,26.829
			c-0.19,0.239-0.461,0.351-1.192,0.351c-0.685,0-0.955-0.111-1.161-0.351c-0.319-0.366-0.494-1.399-0.494-2.562
			c0-1.178,0.176-2.053,0.494-2.435c0.206-0.239,0.477-0.334,1.193-0.334c0.699,0,0.97,0.095,1.16,0.334
			c0.319,0.382,0.479,1.257,0.479,2.435C75.703,25.43,75.543,26.463,75.225,26.829z"/>
		<path fill="#FF8E00" d="M83.02,20.002c-0.431-0.048-0.51-0.062-1.035-0.062c-1.02,0-1.688,0.158-2.483,0.332
			c-0.097,0.016-0.159,0.063-0.159,0.16v8.02c0,0.095,0.062,0.158,0.159,0.158h1.75c0.11,0.017,0.175-0.047,0.175-0.158v-6.399
			c0-0.206-0.002-0.268,0.066-0.348c0.177-0.206,1.049-0.095,1.43-0.031c0.081,0.017,0.112-0.032,0.112-0.08l0.079-1.464
			C83.113,20.051,83.098,20.02,83.02,20.002z"/>
		<path fill="#FF8E00" d="M87.284,19.939c-1.066,0-2.179,0.125-2.786,0.302c-0.096,0.032-0.111,0.126-0.096,0.223l0.113,1.226
			c0.016,0.096,0.144,0.096,0.238,0.08c0.508-0.08,1.398-0.16,1.973-0.16c1.241,0,1.688,0.224,1.688,1.178v0.637
			c0,0.062-0.032,0.08-0.096,0.096l-1.877,0.238c-2.34,0.286-2.705,1.02-2.705,2.641c0,1.83,0.859,2.373,3.724,2.373
			c1.099,0,2.228-0.112,2.784-0.287c0.176-0.063,0.207-0.144,0.207-0.239v-5.776C90.45,20.607,89.257,19.939,87.284,19.939z
			 M88.413,27.242c0,0.048-0.017,0.08-0.111,0.111c-0.206,0.047-0.636,0.08-1.002,0.08c-1.257,0-1.543-0.127-1.543-1.257
			c0-1.146,0.351-1.353,1.496-1.353h1.065c0.063,0,0.096,0.031,0.096,0.095L88.413,27.242L88.413,27.242z"/>
		<path fill="#FF8E00" d="M16.685,22.698H12.91c-0.162,0-0.242-0.08-0.242-0.241V3.886c0-1.846-0.586-3.115-4.547-3.115
			c-0.179,0-0.458,0.022-0.824,0.069C6.762,0.904,5.23,1.203,4.907,1.288L1.211,2.214L0.876,2.287
			C0.699,2.339,0.585,2.42,0.525,2.535c-0.038,0.07-0.057,0.15-0.057,0.245V7.9c0,0.241,0.162,0.403,0.403,0.403
			c0,0,1.322-0.328,2.522-0.625c0.934-0.229,1.789-0.439,1.876-0.46c0.21-0.052,0.34,0.058,0.37,0.19c0,0,0,0.001,0.001,0.002
			c0.004,0.019,0.006,0.039,0.006,0.058v14.998c0,0.058-0.011,0.104-0.032,0.142c-0.039,0.062-0.107,0.091-0.206,0.091H1.245
			c-0.153,0-0.274,0.065-0.341,0.176c-0.043,0.063-0.066,0.144-0.066,0.235v5.108c0,0.241,0.162,0.403,0.403,0.403H16.68
			c0.154,0,0.274-0.066,0.342-0.176c0.042-0.064,0.066-0.146,0.066-0.236V23.1C17.087,22.859,16.927,22.698,16.685,22.698z"/>
		<path fill="#FF8E00" d="M29.03,0.866c-0.698-0.054-1.444-0.077-2.24-0.077c-6.007,0-9.758,1.411-9.758,9.153
			c0,6.047,1.452,8.75,7.138,8.75c1.124,0,1.8-0.187,2.677-0.31c0.034-0.005,0.108-0.01,0.144-0.015
			c0.231-0.014,0.315,0.173,0.314,0.271c-0.001,0.12-0.051,0.273-0.112,0.375c-2.541,4.111-5.645,7.942-6.653,8.99
			c-0.283,0.443,0,0.605,0.525,0.605h6.975c0.338,0,0.538-0.039,0.724-0.172c0.081-0.059,0.158-0.133,0.244-0.231
			C36.022,19.9,36.95,15.911,36.95,9.821C36.95,3.45,34.535,1.273,29.03,0.866z M29.517,13.196
			c-0.421,0.632-1.169,0.777-2.444,0.777c-2.217,0-2.863-0.482-2.863-3.911c0-3.387,0.526-3.669,2.863-3.669
			c1.165,0,1.926,0.082,2.382,0.676c0.396,0.514,0.561,1.42,0.561,2.993C30.016,11.666,29.898,12.627,29.517,13.196z"/>
	</g>
</g>
<g id="Guias" display="none">
</g>
</svg>
